G04 #@! TF.GenerationSoftware,KiCad,Pcbnew,5.1.4-e60b266~84~ubuntu18.04.1*
G04 #@! TF.CreationDate,2019-10-14T21:09:32+02:00*
G04 #@! TF.ProjectId,panel,70616e65-6c2e-46b6-9963-61645f706362,rev?*
G04 #@! TF.SameCoordinates,Original*
G04 #@! TF.FileFunction,Profile,NP*
%FSLAX46Y46*%
G04 Gerber Fmt 4.6, Leading zero omitted, Abs format (unit mm)*
G04 Created by KiCad (PCBNEW 5.1.4-e60b266~84~ubuntu18.04.1) date 2019-10-14 21:09:32*
%MOMM*%
%LPD*%
G04 APERTURE LIST*
%ADD10C,0.050000*%
G04 APERTURE END LIST*
D10*
X139446000Y-116205000D02*
X171069000Y-116205000D01*
X171069000Y-116205000D02*
X171069000Y-79629000D01*
X171069000Y-79629000D02*
X139446000Y-79629000D01*
X139446000Y-79629000D02*
X139446000Y-116205000D01*
X107823000Y-79629000D02*
X107823000Y-43053000D01*
X107823000Y-43053000D02*
X107823000Y-79629000D01*
X76200000Y-79629000D02*
X107823000Y-79629000D01*
X107823000Y-79629000D02*
X139446000Y-79629000D01*
X139446000Y-79629000D02*
X107823000Y-79629000D01*
X107823000Y-79629000D02*
X76200000Y-79629000D01*
X107823000Y-116205000D02*
X107823000Y-79629000D01*
X107823000Y-79629000D02*
X107823000Y-116205000D01*
X139446000Y-79629000D02*
X139446000Y-43053000D01*
X139446000Y-43053000D02*
X139446000Y-79629000D01*
X139446000Y-116205000D02*
X139446000Y-79629000D01*
X139446000Y-79629000D02*
X171069000Y-79629000D01*
X107823000Y-116205000D02*
X139446000Y-116205000D01*
X76200000Y-116205000D02*
X107823000Y-116205000D01*
X76200000Y-79629000D02*
X76200000Y-116205000D01*
X171069000Y-79629000D02*
X171069000Y-43053000D01*
X171069000Y-43053000D02*
X139446000Y-43053000D01*
X139446000Y-43053000D02*
X107823000Y-43053000D01*
X76200000Y-43053000D02*
X76200000Y-79629000D01*
X107823000Y-43053000D02*
X76200000Y-43053000D01*
M02*
