M48
; DRILL file {KiCad 5.1.4-e60b266~84~ubuntu18.04.1} date Wed 16 Oct 2019 03:45:52 PM CEST
; FORMAT={-:-/ absolute / inch / decimal}
; #@! TF.CreationDate,2019-10-16T15:45:52+02:00
; #@! TF.GenerationSoftware,Kicad,Pcbnew,5.1.4-e60b266~84~ubuntu18.04.1
; #@! TF.FileFunction,Plated,1,2,PTH
FMAT,2
INCH
T1C0.0079
T2C0.0157
T3C0.0276
T4C0.0394
%
G90
G05
T1
X4.721Y-3.8237
X4.721Y-3.8772
X4.721Y-3.9308
X4.721Y-3.9843
X4.721Y-4.0379
X4.721Y-4.0914
X4.7745Y-3.8237
X4.7745Y-3.8772
X4.7745Y-3.9308
X4.7745Y-3.9843
X4.7745Y-4.0379
X4.7745Y-4.0914
X4.8281Y-3.8237
X4.8281Y-3.8772
X4.8281Y-3.9308
X4.8281Y-3.9843
X4.8281Y-4.0379
X4.8281Y-4.0914
X4.8816Y-3.8237
X4.8816Y-3.8772
X4.8816Y-3.9308
X4.8816Y-3.9843
X4.8816Y-4.0379
X4.8816Y-4.0914
X4.9352Y-3.8237
X4.9352Y-3.8772
X4.9352Y-3.9308
X4.9352Y-3.9843
X4.9352Y-4.0379
X4.9352Y-4.0914
X4.9887Y-3.8237
X4.9887Y-3.8772
X4.9887Y-3.9308
X4.9887Y-3.9843
X4.9887Y-4.0379
X4.9887Y-4.0914
X5.966Y-3.8237
X5.966Y-3.8772
X5.966Y-3.9308
X5.966Y-3.9843
X5.966Y-4.0379
X5.966Y-4.0914
X6.0195Y-3.8237
X6.0195Y-3.8772
X6.0195Y-3.9308
X6.0195Y-3.9843
X6.0195Y-4.0379
X6.0195Y-4.0914
X6.0731Y-3.8237
X6.0731Y-3.8772
X6.0731Y-3.9308
X6.0731Y-3.9843
X6.0731Y-4.0379
X6.0731Y-4.0914
X6.1266Y-3.8237
X6.1266Y-3.8772
X6.1266Y-3.9308
X6.1266Y-3.9843
X6.1266Y-4.0379
X6.1266Y-4.0914
X6.1802Y-3.8237
X6.1802Y-3.8772
X6.1802Y-3.9308
X6.1802Y-3.9843
X6.1802Y-4.0379
X6.1802Y-4.0914
X6.2337Y-3.8237
X6.2337Y-3.8772
X6.2337Y-3.9308
X6.2337Y-3.9843
X6.2337Y-4.0379
X6.2337Y-4.0914
X3.476Y-3.8237
X3.476Y-3.8772
X3.476Y-3.9308
X3.476Y-3.9843
X3.476Y-4.0379
X3.476Y-4.0914
X3.5295Y-3.8237
X3.5295Y-3.8772
X3.5295Y-3.9308
X3.5295Y-3.9843
X3.5295Y-4.0379
X3.5295Y-4.0914
X3.5831Y-3.8237
X3.5831Y-3.8772
X3.5831Y-3.9308
X3.5831Y-3.9843
X3.5831Y-4.0379
X3.5831Y-4.0914
X3.6366Y-3.8237
X3.6366Y-3.8772
X3.6366Y-3.9308
X3.6366Y-3.9843
X3.6366Y-4.0379
X3.6366Y-4.0914
X3.6902Y-3.8237
X3.6902Y-3.8772
X3.6902Y-3.9308
X3.6902Y-3.9843
X3.6902Y-4.0379
X3.6902Y-4.0914
X3.7437Y-3.8237
X3.7437Y-3.8772
X3.7437Y-3.9308
X3.7437Y-3.9843
X3.7437Y-4.0379
X3.7437Y-4.0914
X3.476Y-2.3837
X3.476Y-2.4372
X3.476Y-2.4908
X3.476Y-2.5443
X3.476Y-2.5979
X3.476Y-2.6514
X3.5295Y-2.3837
X3.5295Y-2.4372
X3.5295Y-2.4908
X3.5295Y-2.5443
X3.5295Y-2.5979
X3.5295Y-2.6514
X3.5831Y-2.3837
X3.5831Y-2.4372
X3.5831Y-2.4908
X3.5831Y-2.5443
X3.5831Y-2.5979
X3.5831Y-2.6514
X3.6366Y-2.3837
X3.6366Y-2.4372
X3.6366Y-2.4908
X3.6366Y-2.5443
X3.6366Y-2.5979
X3.6366Y-2.6514
X3.6902Y-2.3837
X3.6902Y-2.4372
X3.6902Y-2.4908
X3.6902Y-2.5443
X3.6902Y-2.5979
X3.6902Y-2.6514
X3.7437Y-2.3837
X3.7437Y-2.4372
X3.7437Y-2.4908
X3.7437Y-2.5443
X3.7437Y-2.5979
X3.7437Y-2.6514
X4.721Y-2.3837
X4.721Y-2.4372
X4.721Y-2.4908
X4.721Y-2.5443
X4.721Y-2.5979
X4.721Y-2.6514
X4.7745Y-2.3837
X4.7745Y-2.4372
X4.7745Y-2.4908
X4.7745Y-2.5443
X4.7745Y-2.5979
X4.7745Y-2.6514
X4.8281Y-2.3837
X4.8281Y-2.4372
X4.8281Y-2.4908
X4.8281Y-2.5443
X4.8281Y-2.5979
X4.8281Y-2.6514
X4.8816Y-2.3837
X4.8816Y-2.4372
X4.8816Y-2.4908
X4.8816Y-2.5443
X4.8816Y-2.5979
X4.8816Y-2.6514
X4.9352Y-2.3837
X4.9352Y-2.4372
X4.9352Y-2.4908
X4.9352Y-2.5443
X4.9352Y-2.5979
X4.9352Y-2.6514
X4.9887Y-2.3837
X4.9887Y-2.4372
X4.9887Y-2.4908
X4.9887Y-2.5443
X4.9887Y-2.5979
X4.9887Y-2.6514
X5.966Y-2.3837
X5.966Y-2.4372
X5.966Y-2.4908
X5.966Y-2.5443
X5.966Y-2.5979
X5.966Y-2.6514
X6.0195Y-2.3837
X6.0195Y-2.4372
X6.0195Y-2.4908
X6.0195Y-2.5443
X6.0195Y-2.5979
X6.0195Y-2.6514
X6.0731Y-2.3837
X6.0731Y-2.4372
X6.0731Y-2.4908
X6.0731Y-2.5443
X6.0731Y-2.5979
X6.0731Y-2.6514
X6.1266Y-2.3837
X6.1266Y-2.4372
X6.1266Y-2.4908
X6.1266Y-2.5443
X6.1266Y-2.5979
X6.1266Y-2.6514
X6.1802Y-2.3837
X6.1802Y-2.4372
X6.1802Y-2.4908
X6.1802Y-2.5443
X6.1802Y-2.5979
X6.1802Y-2.6514
X6.2337Y-2.3837
X6.2337Y-2.4372
X6.2337Y-2.4908
X6.2337Y-2.5443
X6.2337Y-2.5979
X6.2337Y-2.6514
T2
X3.14Y-1.91
X3.14Y-3.35
X3.196Y-2.288
X3.196Y-3.728
X3.207Y-1.996
X3.207Y-3.436
X3.248Y-1.996
X3.248Y-3.436
X3.271Y-2.529
X3.271Y-3.969
X3.31Y-1.825
X3.31Y-3.265
X3.319Y-2.528
X3.319Y-3.968
X3.32Y-2.743
X3.32Y-4.183
X3.336Y-2.336
X3.336Y-3.776
X3.34Y-1.825
X3.34Y-3.265
X3.359Y-2.872
X3.359Y-4.312
X3.375Y-2.485
X3.375Y-2.577
X3.375Y-3.925
X3.375Y-4.017
X3.44Y-1.995
X3.44Y-3.435
X3.54Y-2.175
X3.54Y-3.615
X3.5403Y-2.2556
X3.5403Y-3.6956
X3.5905Y-2.7447
X3.5905Y-4.1847
X3.5928Y-2.855
X3.5928Y-4.295
X3.725Y-1.91
X3.725Y-3.35
X3.7507Y-2.8452
X3.7507Y-4.2852
X3.755Y-2.8
X3.755Y-4.24
X3.83Y-2.496
X3.83Y-3.936
X3.845Y-2.215
X3.845Y-3.655
X3.918Y-2.666
X3.918Y-4.106
X3.955Y-2.155
X3.955Y-3.595
X3.9772Y-2.5478
X3.9772Y-3.9878
X4.032Y-2.233
X4.032Y-3.673
X4.385Y-1.91
X4.385Y-3.35
X4.441Y-2.288
X4.441Y-3.728
X4.452Y-1.996
X4.452Y-3.436
X4.493Y-1.996
X4.493Y-3.436
X4.516Y-2.529
X4.516Y-3.969
X4.555Y-1.825
X4.555Y-3.265
X4.564Y-2.528
X4.564Y-3.968
X4.565Y-2.743
X4.565Y-4.183
X4.581Y-2.336
X4.581Y-3.776
X4.585Y-1.825
X4.585Y-3.265
X4.604Y-2.872
X4.604Y-4.312
X4.62Y-2.485
X4.62Y-2.577
X4.62Y-3.925
X4.62Y-4.017
X4.685Y-1.995
X4.685Y-3.435
X4.785Y-2.175
X4.785Y-3.615
X4.7853Y-2.2556
X4.7853Y-3.6956
X4.8355Y-2.7447
X4.8355Y-4.1847
X4.8378Y-2.855
X4.8378Y-4.295
X4.97Y-1.91
X4.97Y-3.35
X4.9957Y-2.8452
X4.9957Y-4.2852
X5.0Y-2.8
X5.0Y-4.24
X5.075Y-2.496
X5.075Y-3.936
X5.09Y-2.215
X5.09Y-3.655
X5.163Y-2.666
X5.163Y-4.106
X5.2Y-2.155
X5.2Y-3.595
X5.2222Y-2.5478
X5.2222Y-3.9878
X5.277Y-2.233
X5.277Y-3.673
X5.63Y-1.91
X5.63Y-3.35
X5.686Y-2.288
X5.686Y-3.728
X5.697Y-1.996
X5.697Y-3.436
X5.738Y-1.996
X5.738Y-3.436
X5.761Y-2.529
X5.761Y-3.969
X5.8Y-1.825
X5.8Y-3.265
X5.809Y-2.528
X5.809Y-3.968
X5.81Y-2.743
X5.81Y-4.183
X5.826Y-2.336
X5.826Y-3.776
X5.83Y-1.825
X5.83Y-3.265
X5.849Y-2.872
X5.849Y-4.312
X5.865Y-2.485
X5.865Y-2.577
X5.865Y-3.925
X5.865Y-4.017
X5.93Y-1.995
X5.93Y-3.435
X6.03Y-2.175
X6.03Y-3.615
X6.0303Y-2.2556
X6.0303Y-3.6956
X6.0805Y-2.7447
X6.0805Y-4.1847
X6.0828Y-2.855
X6.0828Y-4.295
X6.215Y-1.91
X6.215Y-3.35
X6.2407Y-2.8452
X6.2407Y-4.2852
X6.245Y-2.8
X6.245Y-4.24
X6.32Y-2.496
X6.32Y-3.936
X6.335Y-2.215
X6.335Y-3.655
X6.408Y-2.666
X6.408Y-4.106
X6.445Y-2.155
X6.445Y-3.595
X6.4672Y-2.5478
X6.4672Y-3.9878
X6.522Y-2.233
X6.522Y-3.673
T3
X6.35Y-3.71
X3.75Y-3.57
X5.105Y-3.71
X3.75Y-2.13
X6.35Y-2.27
X6.24Y-3.57
X4.995Y-2.13
X4.995Y-3.57
X5.105Y-2.27
X3.86Y-2.27
X6.24Y-2.13
X3.86Y-3.71
T4
X4.175Y-3.505
X4.175Y-3.605
X4.175Y-3.705
X4.175Y-3.805
X4.175Y-3.905
X4.175Y-4.005
X4.175Y-4.105
X4.175Y-4.205
X4.175Y-4.305
X4.175Y-4.405
X3.175Y-4.505
X3.275Y-4.505
X3.375Y-4.505
X3.475Y-4.505
X3.575Y-4.505
X3.675Y-4.505
X3.775Y-4.505
X3.875Y-4.505
X4.315Y-2.065
X4.315Y-2.165
X4.315Y-2.265
X4.315Y-2.365
X4.315Y-2.465
X4.315Y-2.565
X4.315Y-2.665
X4.315Y-2.765
X4.315Y-2.865
X4.315Y-2.965
X4.42Y-4.505
X4.52Y-4.505
X4.62Y-4.505
X4.72Y-4.505
X4.82Y-4.505
X4.92Y-4.505
X5.02Y-4.505
X5.12Y-4.505
X4.42Y-3.205
X4.52Y-3.205
X4.62Y-3.205
X4.72Y-3.205
X4.82Y-3.205
X4.92Y-3.205
X6.665Y-3.505
X6.665Y-3.605
X6.665Y-3.705
X6.665Y-3.805
X6.665Y-3.905
X6.665Y-4.005
X6.665Y-4.105
X6.665Y-4.205
X6.665Y-4.305
X6.665Y-4.405
X5.56Y-2.065
X5.56Y-2.165
X5.56Y-2.265
X5.56Y-2.365
X5.56Y-2.465
X5.56Y-2.565
X5.56Y-2.665
X5.56Y-2.765
X5.56Y-2.865
X5.56Y-2.965
X5.665Y-3.065
X5.765Y-3.065
X5.865Y-3.065
X5.965Y-3.065
X6.065Y-3.065
X6.165Y-3.065
X6.265Y-3.065
X6.365Y-3.065
X5.665Y-4.505
X5.765Y-4.505
X5.865Y-4.505
X5.965Y-4.505
X6.065Y-4.505
X6.165Y-4.505
X6.265Y-4.505
X6.365Y-4.505
X3.175Y-3.205
X3.275Y-3.205
X3.375Y-3.205
X3.475Y-3.205
X3.575Y-3.205
X3.675Y-3.205
X5.665Y-3.205
X5.765Y-3.205
X5.865Y-3.205
X5.965Y-3.205
X6.065Y-3.205
X6.165Y-3.205
X4.175Y-2.065
X4.175Y-2.165
X4.175Y-2.265
X4.175Y-2.365
X4.175Y-2.465
X4.175Y-2.565
X4.175Y-2.665
X4.175Y-2.765
X4.175Y-2.865
X4.175Y-2.965
X3.07Y-3.505
X3.07Y-3.605
X3.07Y-3.705
X3.07Y-3.805
X3.07Y-3.905
X3.07Y-4.005
X3.07Y-4.105
X3.07Y-4.205
X3.07Y-4.305
X3.07Y-4.405
X3.175Y-1.765
X3.275Y-1.765
X3.375Y-1.765
X3.475Y-1.765
X3.575Y-1.765
X3.675Y-1.765
X3.07Y-2.065
X3.07Y-2.165
X3.07Y-2.265
X3.07Y-2.365
X3.07Y-2.465
X3.07Y-2.565
X3.07Y-2.665
X3.07Y-2.765
X3.07Y-2.865
X3.07Y-2.965
X4.315Y-3.505
X4.315Y-3.605
X4.315Y-3.705
X4.315Y-3.805
X4.315Y-3.905
X4.315Y-4.005
X4.315Y-4.105
X4.315Y-4.205
X4.315Y-4.305
X4.315Y-4.405
X5.42Y-2.065
X5.42Y-2.165
X5.42Y-2.265
X5.42Y-2.365
X5.42Y-2.465
X5.42Y-2.565
X5.42Y-2.665
X5.42Y-2.765
X5.42Y-2.865
X5.42Y-2.965
X4.42Y-3.065
X4.52Y-3.065
X4.62Y-3.065
X4.72Y-3.065
X4.82Y-3.065
X4.92Y-3.065
X5.02Y-3.065
X5.12Y-3.065
X5.42Y-3.505
X5.42Y-3.605
X5.42Y-3.705
X5.42Y-3.805
X5.42Y-3.905
X5.42Y-4.005
X5.42Y-4.105
X5.42Y-4.205
X5.42Y-4.305
X5.42Y-4.405
X4.42Y-1.765
X4.52Y-1.765
X4.62Y-1.765
X4.72Y-1.765
X4.82Y-1.765
X4.92Y-1.765
X6.665Y-2.065
X6.665Y-2.165
X6.665Y-2.265
X6.665Y-2.365
X6.665Y-2.465
X6.665Y-2.565
X6.665Y-2.665
X6.665Y-2.765
X6.665Y-2.865
X6.665Y-2.965
X5.56Y-3.505
X5.56Y-3.605
X5.56Y-3.705
X5.56Y-3.805
X5.56Y-3.905
X5.56Y-4.005
X5.56Y-4.105
X5.56Y-4.205
X5.56Y-4.305
X5.56Y-4.405
X5.665Y-1.765
X5.765Y-1.765
X5.865Y-1.765
X5.965Y-1.765
X6.065Y-1.765
X6.165Y-1.765
X3.175Y-3.065
X3.275Y-3.065
X3.375Y-3.065
X3.475Y-3.065
X3.575Y-3.065
X3.675Y-3.065
X3.775Y-3.065
X3.875Y-3.065
T0
M30
